<svg height="512" viewBox="0 0 128 128" width="512" xmlns="http://www.w3.org/2000/svg"><g id="number"><text fill="#24253a" font-family="MyriadPro-Regular, Myriad Pro" font-size="40" letter-spacing=".002em" transform="translate(53.681 -282.265)">1<tspan x="-10.3" y="228">11</tspan><tspan x="-10.3" y="456">21</tspan><tspan x="-10.3" y="684">31</tspan><tspan x="-10.3" y="912">41</tspan><tspan x="-10.3" y="1140">51</tspan><tspan x="-10.3" y="1368">61</tspan><tspan x="-10.3" y="1596">71</tspan><tspan x="-10.3" y="1824">81</tspan><tspan x="-10.3" y="2052">91</tspan><tspan x="-20.599" y="2280">101</tspan><tspan x="-20.599" y="2508">111</tspan><tspan x="-20.599" y="2736">121</tspan><tspan x="-20.599" y="2964">131</tspan><tspan x="-20.599" y="3192">141</tspan><tspan x="-20.599" y="3420">151</tspan><tspan x="-20.599" y="3648">161</tspan><tspan x="-20.599" y="3876">171</tspan><tspan x="-20.599" y="4104">181</tspan><tspan x="-20.599" y="4332">191</tspan><tspan x="-20.599" y="4560">201</tspan><tspan x="-20.599" y="4788">211</tspan><tspan x="-20.599" y="5016">221</tspan><tspan x="-20.599" y="5244">231</tspan><tspan x="-20.599" y="5472">241</tspan></text></g><g id="icon"><path d="m68.07 31.472a16.315 16.315 0 0 0 1.735 4.835 1.042 1.042 0 0 0 1.717.048c2.365-3.231 9.899-12.862 16.028-13.355 0 0-8.641 9.488-7.2 13.809s14.485-11.183 14.485-11.183a76.35 76.35 0 0 1 -3.389 10.251c-2.542 6.439 8.472-2.287 8.472-2.287s-4.151 5-4.744 9.4 7.116.508 7.116.508-28.159 21.896-27.937 40.202a11.963 11.963 0 0 1 -3.237 8.358 23.119 23.119 0 0 1 -6.228 4.642c-5.243 2.709-10.767 5.719-13.705 7.334a7.766 7.766 0 0 1 -4.575.917 7.731 7.731 0 0 1 -5.3-2.964 34.9 34.9 0 0 0 -7.754-7.622 16.739 16.739 0 0 1 -6.854-8.665 20.916 20.916 0 0 1 -.81-9.157 18.666 18.666 0 0 1 4.2-9.66 21.042 21.042 0 0 1 6.073-5.125 7.43 7.43 0 0 0 4.193-5.172 4.84 4.84 0 0 1 3.529-3.73c6.606-1.743 20.315-7.025 24.185-21.384z" fill="#ef5261"/><path d="m46.011 59.979s21.418-8.641 20.91-17.664a12.141 12.141 0 0 0 1.755 3.667.742.742 0 0 0 1.213-.1c1.185-2.012 4.526-7.033 9.019-8.308 0 0-5.591 7.625-3.05 8.726s9.149-7.709 9.149-7.709-2.193 4.443-2.007 6.947a1.065 1.065 0 0 0 1.485.894 7.061 7.061 0 0 0 2.978-2.252 41.555 41.555 0 0 0 -1.981 5.888.924.924 0 0 0 .927 1.1 13.324 13.324 0 0 0 2.833-.3s-15.08 11.649-17.621 24.1-7.243 10-7.243 10z" fill="#f6c863"/><path d="m54.086 61.372s9.658-5.162 15-10.839v3.558l6.439-2.626-2.462 5.335 5.846-.508s-12.115 12.855-13.555 19.772z" fill="#eeefee"/><path d="m67.388 83.066a45.375 45.375 0 0 0 -1.906 5.934 7.954 7.954 0 0 1 -3.167 4.605c-3.512 2.47-10.034 6.349-16.3 6.308a5.945 5.945 0 0 1 -2.918-.788l9.373-3.507a9.787 9.787 0 0 0 1.86-.93l2.984-1.911a9.828 9.828 0 0 0 4.186-5.71l1.489-5.53a9.837 9.837 0 0 0 .264-3.772l-.7-5.561a9.827 9.827 0 0 0 -9.19-8.6l-12.337-.7.656-1.144a8.023 8.023 0 0 1 7.665-4c6.4.564 16.373 2.633 16.428 10.054l.727 5.5a8.253 8.253 0 0 0 .7 2.409 9.114 9.114 0 0 1 .186 7.343z" fill="#575b6d"/><path d="m62.987 81.536-1.487 5.531a9.828 9.828 0 0 1 -4.183 5.713l-2.987 1.911a9.787 9.787 0 0 1 -1.86.93l-9.37 3.508a6.2 6.2 0 0 1 -1.54-1.261l-3.06-3.451-5.2-5.841a14.163 14.163 0 0 1 -2.074-15.89 14.664 14.664 0 0 1 6.959-7.03 5.43 5.43 0 0 0 2.572-2.282l.269-.468 12.337.7a9.827 9.827 0 0 1 9.19 8.6l.7 5.561a9.837 9.837 0 0 1 -.266 3.769z" fill="#7a8293"/><g fill="#575b6d"><path d="m44.741 67.88c.484 0 1.084.09 1.238.548a1.11 1.11 0 0 1 -.242.921 3.068 3.068 0 0 1 -1.656 1.375c-.547.147-1.142.053-1.68.229a8.651 8.651 0 0 0 -1.132.6 1.278 1.278 0 0 1 -1.226.063 1.177 1.177 0 0 1 -.467-.739 2.506 2.506 0 0 1 1.344-2.635c.988-.576 2.711-.361 3.821-.362z"/><path d="m56.865 68.092a1.121 1.121 0 0 1 .551.229.91.91 0 0 1 .219.368 6.654 6.654 0 0 1 .071 2.392c-.075 3.352 2.7 6.225 2.8 9.576-.491-.112-.752-.63-1.018-1.058-.86-1.389-2.377-2.309-3.1-3.775-.613-1.247-.564-2.725-1.086-4.013-.775-1.912-2.443-2.626-3.938-3.82 1.556-.6 3.911-.233 5.501.101z"/><path d="m46.164 74.92c.914.406 1.895.659 2.773 1.137a1.161 1.161 0 0 1 .659.7c.089.431-.273.812-.6 1.1q-2.096 1.828-4.287 3.543a8.124 8.124 0 0 1 -2.466 1.483 8.255 8.255 0 0 1 -2.4.273q-2.337.03-4.675 0c-.133 0-.3-.027-.336-.154s.1-.246.22-.309a10.476 10.476 0 0 1 2.728-.7 19.843 19.843 0 0 0 2.732-.859 10.841 10.841 0 0 0 2.964-1.45 5.415 5.415 0 0 0 1.051-1.08 3 3 0 0 0 .669-2.12c-.1-.719-1.582-2.322-1.362-2.927.181-.5.57.144.811.377a5.2 5.2 0 0 0 1.519.986z"/><path d="m52.915 80.341a1.325 1.325 0 0 1 -.151.523 1.216 1.216 0 0 1 -.771.448c-.508.13-1.033.2-1.527.375a2.125 2.125 0 0 0 -1.213.942 2.942 2.942 0 0 0 -.19 1.527.493.493 0 0 0 .065.265.468.468 0 0 0 .2.139 4.737 4.737 0 0 0 1.815.415 2.722 2.722 0 0 0 .791-.079 3.834 3.834 0 0 0 1.348-.818 8.335 8.335 0 0 0 1.508-1.457 2.806 2.806 0 0 0 .6-1.962 2.133 2.133 0 0 0 -1.37-1.674c-1.037-.354-.99.554-1.105 1.356z"/><path d="m55.566 86.693a3.874 3.874 0 0 1 -.6 1.146 4.128 4.128 0 0 1 -2.018 1.045 34.7 34.7 0 0 0 -5.422 2.2 2.91 2.91 0 0 1 -1.957.482 2.759 2.759 0 0 1 -.63-.279l-3.585-1.958a28.783 28.783 0 0 0 10.812-2.144 16.113 16.113 0 0 0 2.156-1.049c.417-.249 1.375-1.255 1.824-1.107a6 6 0 0 1 -.58 1.664z"/></g><path d="m46.507 93.548a.954.954 0 0 1 .193.889 1.044 1.044 0 0 1 -.676.614 2.788 2.788 0 0 1 -.7.15c-.472.045-.946.051-1.42.054-1.23.008-.7-.953-.083-1.466.703-.589 1.972-1.106 2.686-.241z" fill="none"/><path d="m36.928 85.722a18.407 18.407 0 0 1 3.614.728 2.2 2.2 0 0 1 .9.434.791.791 0 0 1 .218.915 14.692 14.692 0 0 1 -4.795-.574c-.49-.143-1.036-.373-1.192-.86a3.65 3.65 0 0 1 2.395-.443" fill="#575b6d"/><path d="m38.819 76.126a.647.647 0 0 1 .255.209 5.2 5.2 0 0 1 1.186 2.765 7.5 7.5 0 0 1 -3.828-.717.5.5 0 0 1 -.2-.138.519.519 0 0 1 -.072-.284 1.594 1.594 0 0 1 .643-1.657 4.1 4.1 0 0 1 2.016-.178z" fill="#575b6d"/></g></svg>